# xmcd
#
# Track frame offsets:
# 150
# 15285
# 30646
# 48351
# 65025
# 85564
# 111693
# 130821
# 167235
#
# Disc length: 2649 seconds
#
# Revision: 0
# Processed by: cddbd v1.5.2PL0 Copyright (c) Steve Scherf et al.
# Submitted via: Audion 3.0.2 (http://www.panic.com/audion/)
#
DISCID=710a5709
DTITLE=Maktub - Khronos
DYEAR=1900
DGENRE=
TTITLE0=So Tired
TTITLE1=Give me Some Time
TTITLE2=Baby Can't Wait
TTITLE3=We've Got Desire
TTITLE4=Just Like Murder
TTITLE5=See Clearly
TTITLE6=Say You Will
TTITLE7=No Quarter
TTITLE8=Then We'll Know
EXTD=
EXTT0=
EXTT1=
EXTT2=
EXTT3=
EXTT4=
EXTT5=
EXTT6=
EXTT7=
EXTT8=
PLAYORDER=
